<mxfile host="app.diagrams.net" agent="Mozilla/5.0 (Windows NT 10.0; Win64; x64) AppleWebKit/537.36 (KHTML, like Gecko) Chrome/129.0.0.0 Safari/537.36 AVG/129.0.0.0" version="24.8.4">
  <diagram id="prtHgNgQTEPvFCAcTncT" name="Page-1">
    <mxGraphModel dx="2074" dy="1098" grid="1" gridSize="10" guides="1" tooltips="1" connect="1" arrows="1" fold="1" page="1" pageScale="1" pageWidth="827" pageHeight="1169" math="0" shadow="0">
      <root>
        <mxCell id="0" />
        <mxCell id="1" parent="0" />
        <mxCell id="M4mxyy9uxDJhC04Fh0ho-2" value="Flow for Adding a Cooking Class to the Shopping Cart" style="swimlane;childLayout=stackLayout;resizeParent=1;resizeParentMax=0;horizontal=1;startSize=20;horizontalStack=0;html=1;" parent="1" vertex="1">
          <mxGeometry x="30" y="30" width="900" height="1830" as="geometry" />
        </mxCell>
        <mxCell id="M4mxyy9uxDJhC04Fh0ho-3" value="CategoryClasses" style="swimlane;startSize=20;horizontal=0;html=1;" parent="M4mxyy9uxDJhC04Fh0ho-2" vertex="1">
          <mxGeometry y="20" width="900" height="310" as="geometry" />
        </mxCell>
        <mxCell id="M4mxyy9uxDJhC04Fh0ho-11" value="" style="endArrow=classic;html=1;rounded=0;entryX=0.5;entryY=0;entryDx=0;entryDy=0;exitX=0.5;exitY=1;exitDx=0;exitDy=0;" parent="M4mxyy9uxDJhC04Fh0ho-2" source="M4mxyy9uxDJhC04Fh0ho-15" target="M4mxyy9uxDJhC04Fh0ho-10" edge="1">
          <mxGeometry width="50" height="50" relative="1" as="geometry">
            <mxPoint x="395" y="130" as="sourcePoint" />
            <mxPoint x="505" y="330" as="targetPoint" />
          </mxGeometry>
        </mxCell>
        <mxCell id="M4mxyy9uxDJhC04Fh0ho-65" value="props: { images }" style="edgeLabel;html=1;align=center;verticalAlign=middle;resizable=0;points=[];" parent="M4mxyy9uxDJhC04Fh0ho-11" vertex="1" connectable="0">
          <mxGeometry x="0.3338" y="1" relative="1" as="geometry">
            <mxPoint x="-1" y="-26" as="offset" />
          </mxGeometry>
        </mxCell>
        <mxCell id="M4mxyy9uxDJhC04Fh0ho-4" value="FilteredClasses" style="swimlane;startSize=20;horizontal=0;html=1;" parent="M4mxyy9uxDJhC04Fh0ho-2" vertex="1">
          <mxGeometry y="330" width="900" height="440" as="geometry" />
        </mxCell>
        <mxCell id="M4mxyy9uxDJhC04Fh0ho-10" value="images.map()" style="rhombus;whiteSpace=wrap;html=1;strokeWidth=4;" parent="M4mxyy9uxDJhC04Fh0ho-4" vertex="1">
          <mxGeometry x="348" y="40" width="105.67" height="80" as="geometry" />
        </mxCell>
        <mxCell id="M4mxyy9uxDJhC04Fh0ho-50" style="edgeStyle=orthogonalEdgeStyle;rounded=0;orthogonalLoop=1;jettySize=auto;html=1;exitX=0.5;exitY=1;exitDx=0;exitDy=0;entryX=0.5;entryY=0;entryDx=0;entryDy=0;" parent="M4mxyy9uxDJhC04Fh0ho-4" source="M4mxyy9uxDJhC04Fh0ho-17" target="M4mxyy9uxDJhC04Fh0ho-41" edge="1">
          <mxGeometry relative="1" as="geometry" />
        </mxCell>
        <mxCell id="M4mxyy9uxDJhC04Fh0ho-17" value="&amp;lt;Card&amp;gt;&lt;div&gt;&lt;br&gt;&lt;/div&gt;&lt;div&gt;&lt;br&gt;&lt;/div&gt;&lt;div&gt;&lt;br&gt;&lt;/div&gt;&lt;div&gt;&lt;br&gt;&lt;/div&gt;&lt;div&gt;&lt;br&gt;&lt;/div&gt;&lt;div&gt;&lt;br&gt;&lt;/div&gt;&lt;div&gt;&amp;lt;/Card&amp;gt;&lt;br&gt;&lt;/div&gt;" style="shape=parallelogram;perimeter=parallelogramPerimeter;whiteSpace=wrap;html=1;fixedSize=1;" parent="M4mxyy9uxDJhC04Fh0ho-4" vertex="1">
          <mxGeometry x="205" y="150" width="390" height="150" as="geometry" />
        </mxCell>
        <mxCell id="M4mxyy9uxDJhC04Fh0ho-29" value="" style="endArrow=classic;html=1;rounded=0;entryX=0.5;entryY=0;entryDx=0;entryDy=0;exitX=0.5;exitY=1;exitDx=0;exitDy=0;" parent="M4mxyy9uxDJhC04Fh0ho-4" source="M4mxyy9uxDJhC04Fh0ho-10" target="M4mxyy9uxDJhC04Fh0ho-17" edge="1">
          <mxGeometry width="50" height="50" relative="1" as="geometry">
            <mxPoint x="255" y="330" as="sourcePoint" />
            <mxPoint x="305" y="280" as="targetPoint" />
          </mxGeometry>
        </mxCell>
        <mxCell id="M4mxyy9uxDJhC04Fh0ho-86" value="LOOP" style="edgeLabel;html=1;align=center;verticalAlign=middle;resizable=0;points=[];" parent="M4mxyy9uxDJhC04Fh0ho-29" vertex="1" connectable="0">
          <mxGeometry x="-0.4692" y="1" relative="1" as="geometry">
            <mxPoint as="offset" />
          </mxGeometry>
        </mxCell>
        <mxCell id="M4mxyy9uxDJhC04Fh0ho-34" value="ButtonRemoveFromCart" style="shape=parallelogram;perimeter=parallelogramPerimeter;whiteSpace=wrap;html=1;fixedSize=1;" parent="M4mxyy9uxDJhC04Fh0ho-4" vertex="1">
          <mxGeometry x="235" y="194" width="160" height="60" as="geometry" />
        </mxCell>
        <mxCell id="M4mxyy9uxDJhC04Fh0ho-35" value="Button&lt;div&gt;(Add to Cart)&lt;/div&gt;" style="shape=parallelogram;perimeter=parallelogramPerimeter;whiteSpace=wrap;html=1;fixedSize=1;" parent="M4mxyy9uxDJhC04Fh0ho-4" vertex="1">
          <mxGeometry x="405" y="194" width="160" height="60" as="geometry" />
        </mxCell>
        <mxCell id="M4mxyy9uxDJhC04Fh0ho-53" style="edgeStyle=orthogonalEdgeStyle;rounded=0;orthogonalLoop=1;jettySize=auto;html=1;" parent="M4mxyy9uxDJhC04Fh0ho-4" source="M4mxyy9uxDJhC04Fh0ho-41" edge="1">
          <mxGeometry relative="1" as="geometry">
            <mxPoint x="455" y="80" as="targetPoint" />
            <Array as="points">
              <mxPoint x="625" y="371" />
              <mxPoint x="625" y="80" />
            </Array>
          </mxGeometry>
        </mxCell>
        <mxCell id="M4mxyy9uxDJhC04Fh0ho-54" value="No" style="edgeLabel;html=1;align=center;verticalAlign=middle;resizable=0;points=[];" parent="M4mxyy9uxDJhC04Fh0ho-53" vertex="1" connectable="0">
          <mxGeometry x="-0.6106" y="-3" relative="1" as="geometry">
            <mxPoint x="-110" y="-309" as="offset" />
          </mxGeometry>
        </mxCell>
        <mxCell id="M4mxyy9uxDJhC04Fh0ho-41" value="isModalOpen" style="rhombus;whiteSpace=wrap;html=1;" parent="M4mxyy9uxDJhC04Fh0ho-4" vertex="1">
          <mxGeometry x="347.5" y="331" width="105" height="80" as="geometry" />
        </mxCell>
        <mxCell id="M4mxyy9uxDJhC04Fh0ho-59" value="[ openModal ]" style="text;html=1;align=center;verticalAlign=middle;whiteSpace=wrap;rounded=0;fontColor=#A680B8;" parent="M4mxyy9uxDJhC04Fh0ho-4" vertex="1">
          <mxGeometry x="697" y="190" width="100" height="30" as="geometry" />
        </mxCell>
        <mxCell id="M4mxyy9uxDJhC04Fh0ho-61" value="Local State:" style="text;html=1;align=center;verticalAlign=middle;whiteSpace=wrap;rounded=0;fontStyle=1;fontColor=#A680B8;" parent="M4mxyy9uxDJhC04Fh0ho-4" vertex="1">
          <mxGeometry x="705" y="170" width="80" height="30" as="geometry" />
        </mxCell>
        <mxCell id="M4mxyy9uxDJhC04Fh0ho-51" value="" style="edgeStyle=orthogonalEdgeStyle;rounded=0;orthogonalLoop=1;jettySize=auto;html=1;exitX=0.5;exitY=1;exitDx=0;exitDy=0;entryX=0.5;entryY=0;entryDx=0;entryDy=0;" parent="M4mxyy9uxDJhC04Fh0ho-2" source="M4mxyy9uxDJhC04Fh0ho-41" target="M4mxyy9uxDJhC04Fh0ho-19" edge="1">
          <mxGeometry x="0.0116" relative="1" as="geometry">
            <mxPoint as="offset" />
          </mxGeometry>
        </mxCell>
        <mxCell id="M4mxyy9uxDJhC04Fh0ho-55" value="Yes" style="edgeLabel;html=1;align=center;verticalAlign=middle;resizable=0;points=[];" parent="M4mxyy9uxDJhC04Fh0ho-51" vertex="1" connectable="0">
          <mxGeometry x="-0.0462" y="-9" relative="1" as="geometry">
            <mxPoint x="24" y="-24" as="offset" />
          </mxGeometry>
        </mxCell>
        <mxCell id="M4mxyy9uxDJhC04Fh0ho-5" value="ModalAddToCart" style="swimlane;startSize=20;horizontal=0;html=1;" parent="M4mxyy9uxDJhC04Fh0ho-2" vertex="1">
          <mxGeometry y="770" width="900" height="1060" as="geometry" />
        </mxCell>
        <mxCell id="M4mxyy9uxDJhC04Fh0ho-19" value="&lt;span style=&quot;color: rgb(0, 0, 0); font-family: Helvetica; font-size: 12px; font-style: normal; font-variant-ligatures: normal; font-variant-caps: normal; font-weight: 400; letter-spacing: normal; orphans: 2; text-align: center; text-indent: 0px; text-transform: none; widows: 2; word-spacing: 0px; -webkit-text-stroke-width: 0px; white-space: normal; background-color: rgb(251, 251, 251); text-decoration-thickness: initial; text-decoration-style: initial; text-decoration-color: initial; display: inline !important; float: none;&quot;&gt;usegetPrices(prices, isLoading)&lt;/span&gt;" style="shape=process;whiteSpace=wrap;html=1;backgroundOutline=1;" parent="M4mxyy9uxDJhC04Fh0ho-5" vertex="1">
          <mxGeometry x="315.15999999999997" y="40" width="170" height="60" as="geometry" />
        </mxCell>
        <mxCell id="M4mxyy9uxDJhC04Fh0ho-20" value="prices.map()" style="rhombus;whiteSpace=wrap;html=1;strokeWidth=3;" parent="M4mxyy9uxDJhC04Fh0ho-5" vertex="1">
          <mxGeometry x="347.15999999999997" y="139" width="105.67" height="80" as="geometry" />
        </mxCell>
        <mxCell id="M4mxyy9uxDJhC04Fh0ho-21" value="calculateDiscount(price, studentCount)" style="shape=process;whiteSpace=wrap;html=1;backgroundOutline=1;" parent="M4mxyy9uxDJhC04Fh0ho-5" vertex="1">
          <mxGeometry x="314.99999999999994" y="249" width="170" height="60" as="geometry" />
        </mxCell>
        <mxCell id="M4mxyy9uxDJhC04Fh0ho-71" style="edgeStyle=orthogonalEdgeStyle;rounded=0;orthogonalLoop=1;jettySize=auto;html=1;exitX=0.5;exitY=1;exitDx=0;exitDy=0;entryX=0.5;entryY=0;entryDx=0;entryDy=0;" parent="M4mxyy9uxDJhC04Fh0ho-5" source="M4mxyy9uxDJhC04Fh0ho-23" target="M4mxyy9uxDJhC04Fh0ho-67" edge="1">
          <mxGeometry relative="1" as="geometry" />
        </mxCell>
        <mxCell id="M4mxyy9uxDJhC04Fh0ho-23" value="radio: price" style="shape=parallelogram;perimeter=parallelogramPerimeter;whiteSpace=wrap;html=1;fixedSize=1;" parent="M4mxyy9uxDJhC04Fh0ho-5" vertex="1">
          <mxGeometry x="339.99999999999994" y="349" width="120" height="60" as="geometry" />
        </mxCell>
        <mxCell id="M4mxyy9uxDJhC04Fh0ho-31" value="" style="endArrow=classic;html=1;rounded=0;entryX=0.5;entryY=0;entryDx=0;entryDy=0;exitX=0.5;exitY=1;exitDx=0;exitDy=0;" parent="M4mxyy9uxDJhC04Fh0ho-5" source="M4mxyy9uxDJhC04Fh0ho-19" target="M4mxyy9uxDJhC04Fh0ho-20" edge="1">
          <mxGeometry width="50" height="50" relative="1" as="geometry">
            <mxPoint x="275.15999999999997" y="-20" as="sourcePoint" />
            <mxPoint x="325.15999999999997" y="-70" as="targetPoint" />
          </mxGeometry>
        </mxCell>
        <mxCell id="M4mxyy9uxDJhC04Fh0ho-28" value="" style="endArrow=classic;html=1;rounded=0;entryX=0.5;entryY=0;entryDx=0;entryDy=0;" parent="M4mxyy9uxDJhC04Fh0ho-5" source="M4mxyy9uxDJhC04Fh0ho-20" target="M4mxyy9uxDJhC04Fh0ho-21" edge="1">
          <mxGeometry width="50" height="50" relative="1" as="geometry">
            <mxPoint x="275.15999999999997" y="180" as="sourcePoint" />
            <mxPoint x="325.15999999999997" y="130" as="targetPoint" />
          </mxGeometry>
        </mxCell>
        <mxCell id="M4mxyy9uxDJhC04Fh0ho-27" value="" style="endArrow=classic;html=1;rounded=0;entryX=0.5;entryY=0;entryDx=0;entryDy=0;exitX=0.5;exitY=1;exitDx=0;exitDy=0;" parent="M4mxyy9uxDJhC04Fh0ho-5" source="M4mxyy9uxDJhC04Fh0ho-21" target="M4mxyy9uxDJhC04Fh0ho-23" edge="1">
          <mxGeometry width="50" height="50" relative="1" as="geometry">
            <mxPoint x="275.15999999999997" y="180" as="sourcePoint" />
            <mxPoint x="325.15999999999997" y="130" as="targetPoint" />
          </mxGeometry>
        </mxCell>
        <mxCell id="M4mxyy9uxDJhC04Fh0ho-56" value="[&amp;nbsp;&lt;span style=&quot;background-color: initial;&quot;&gt;prices&lt;/span&gt;&lt;div&gt;&lt;div&gt;&lt;div&gt;selectedPrice&lt;/div&gt;&lt;div&gt;displayItemCounter&lt;/div&gt;&lt;div&gt;displayDataPicker&lt;/div&gt;&lt;div&gt;selectedDate&lt;/div&gt;&lt;div&gt;studentCounts ]&lt;/div&gt;&lt;/div&gt;&lt;/div&gt;" style="text;html=1;align=left;verticalAlign=middle;whiteSpace=wrap;rounded=0;fontColor=#A680B8;" parent="M4mxyy9uxDJhC04Fh0ho-5" vertex="1">
          <mxGeometry x="710" y="100" width="60" height="30" as="geometry" />
        </mxCell>
        <mxCell id="M4mxyy9uxDJhC04Fh0ho-62" value="Local State:" style="text;html=1;align=center;verticalAlign=middle;whiteSpace=wrap;rounded=0;fontStyle=1;fontColor=#A680B8;" parent="M4mxyy9uxDJhC04Fh0ho-5" vertex="1">
          <mxGeometry x="710" y="40" width="80" height="30" as="geometry" />
        </mxCell>
        <mxCell id="M4mxyy9uxDJhC04Fh0ho-72" style="edgeStyle=orthogonalEdgeStyle;rounded=0;orthogonalLoop=1;jettySize=auto;html=1;exitX=0.5;exitY=1;exitDx=0;exitDy=0;entryX=0.5;entryY=0;entryDx=0;entryDy=0;" parent="M4mxyy9uxDJhC04Fh0ho-5" source="M4mxyy9uxDJhC04Fh0ho-67" target="M4mxyy9uxDJhC04Fh0ho-69" edge="1">
          <mxGeometry relative="1" as="geometry" />
        </mxCell>
        <mxCell id="M4mxyy9uxDJhC04Fh0ho-74" value="Yes" style="edgeLabel;html=1;align=center;verticalAlign=middle;resizable=0;points=[];" parent="M4mxyy9uxDJhC04Fh0ho-72" vertex="1" connectable="0">
          <mxGeometry x="-0.3549" y="-1" relative="1" as="geometry">
            <mxPoint as="offset" />
          </mxGeometry>
        </mxCell>
        <mxCell id="M4mxyy9uxDJhC04Fh0ho-75" style="edgeStyle=orthogonalEdgeStyle;rounded=0;orthogonalLoop=1;jettySize=auto;html=1;entryX=1;entryY=0.5;entryDx=0;entryDy=0;exitX=1;exitY=0.5;exitDx=0;exitDy=0;" parent="M4mxyy9uxDJhC04Fh0ho-5" source="M4mxyy9uxDJhC04Fh0ho-67" target="M4mxyy9uxDJhC04Fh0ho-68" edge="1">
          <mxGeometry relative="1" as="geometry">
            <mxPoint x="505.0049999999999" y="490" as="sourcePoint" />
            <mxPoint x="544.22" y="680" as="targetPoint" />
            <Array as="points">
              <mxPoint x="485" y="490" />
              <mxPoint x="485" y="710" />
            </Array>
          </mxGeometry>
        </mxCell>
        <mxCell id="M4mxyy9uxDJhC04Fh0ho-76" value="No" style="edgeLabel;html=1;align=center;verticalAlign=middle;resizable=0;points=[];" parent="M4mxyy9uxDJhC04Fh0ho-75" vertex="1" connectable="0">
          <mxGeometry x="-0.8572" y="-1" relative="1" as="geometry">
            <mxPoint x="3" y="-11" as="offset" />
          </mxGeometry>
        </mxCell>
        <mxCell id="M4mxyy9uxDJhC04Fh0ho-67" value="MULTIPLE_STUDENTS" style="rhombus;whiteSpace=wrap;html=1;" parent="M4mxyy9uxDJhC04Fh0ho-5" vertex="1">
          <mxGeometry x="347.16" y="450" width="105" height="80" as="geometry" />
        </mxCell>
        <mxCell id="M4mxyy9uxDJhC04Fh0ho-77" style="edgeStyle=orthogonalEdgeStyle;rounded=0;orthogonalLoop=1;jettySize=auto;html=1;entryX=0.5;entryY=0;entryDx=0;entryDy=0;" parent="M4mxyy9uxDJhC04Fh0ho-5" source="M4mxyy9uxDJhC04Fh0ho-68" target="M4mxyy9uxDJhC04Fh0ho-70" edge="1">
          <mxGeometry relative="1" as="geometry" />
        </mxCell>
        <mxCell id="M4mxyy9uxDJhC04Fh0ho-78" value="Yes" style="edgeLabel;html=1;align=center;verticalAlign=middle;resizable=0;points=[];" parent="M4mxyy9uxDJhC04Fh0ho-77" vertex="1" connectable="0">
          <mxGeometry x="-0.4848" y="-1" relative="1" as="geometry">
            <mxPoint as="offset" />
          </mxGeometry>
        </mxCell>
        <mxCell id="M4mxyy9uxDJhC04Fh0ho-83" style="edgeStyle=orthogonalEdgeStyle;rounded=0;orthogonalLoop=1;jettySize=auto;html=1;entryX=0;entryY=0.5;entryDx=0;entryDy=0;" parent="M4mxyy9uxDJhC04Fh0ho-5" target="M4mxyy9uxDJhC04Fh0ho-79" edge="1">
          <mxGeometry relative="1" as="geometry">
            <mxPoint x="345" y="710" as="sourcePoint" />
            <mxPoint x="263.65999999999997" y="940" as="targetPoint" />
            <Array as="points">
              <mxPoint x="275" y="710" />
              <mxPoint x="275" y="920" />
            </Array>
          </mxGeometry>
        </mxCell>
        <mxCell id="M4mxyy9uxDJhC04Fh0ho-84" value="No" style="edgeLabel;html=1;align=center;verticalAlign=middle;resizable=0;points=[];" parent="M4mxyy9uxDJhC04Fh0ho-83" vertex="1" connectable="0">
          <mxGeometry x="-0.8269" y="2" relative="1" as="geometry">
            <mxPoint x="21" y="-12" as="offset" />
          </mxGeometry>
        </mxCell>
        <mxCell id="M4mxyy9uxDJhC04Fh0ho-68" value="!onllineClass" style="rhombus;whiteSpace=wrap;html=1;" parent="M4mxyy9uxDJhC04Fh0ho-5" vertex="1">
          <mxGeometry x="346.99999999999994" y="670" width="105" height="80" as="geometry" />
        </mxCell>
        <mxCell id="M4mxyy9uxDJhC04Fh0ho-73" style="edgeStyle=orthogonalEdgeStyle;rounded=0;orthogonalLoop=1;jettySize=auto;html=1;exitX=0.5;exitY=1;exitDx=0;exitDy=0;entryX=0.5;entryY=0;entryDx=0;entryDy=0;" parent="M4mxyy9uxDJhC04Fh0ho-5" source="M4mxyy9uxDJhC04Fh0ho-69" target="M4mxyy9uxDJhC04Fh0ho-68" edge="1">
          <mxGeometry relative="1" as="geometry" />
        </mxCell>
        <mxCell id="M4mxyy9uxDJhC04Fh0ho-69" value="&amp;lt;ItemCounter/&amp;gt;" style="shape=parallelogram;perimeter=parallelogramPerimeter;whiteSpace=wrap;html=1;fixedSize=1;" parent="M4mxyy9uxDJhC04Fh0ho-5" vertex="1">
          <mxGeometry x="340" y="570" width="120" height="60" as="geometry" />
        </mxCell>
        <mxCell id="M4mxyy9uxDJhC04Fh0ho-80" style="edgeStyle=orthogonalEdgeStyle;rounded=0;orthogonalLoop=1;jettySize=auto;html=1;exitX=0.5;exitY=1;exitDx=0;exitDy=0;entryX=0.5;entryY=0;entryDx=0;entryDy=0;" parent="M4mxyy9uxDJhC04Fh0ho-5" source="M4mxyy9uxDJhC04Fh0ho-70" target="M4mxyy9uxDJhC04Fh0ho-79" edge="1">
          <mxGeometry relative="1" as="geometry" />
        </mxCell>
        <mxCell id="M4mxyy9uxDJhC04Fh0ho-70" value="&amp;lt;DatePicker/&amp;gt;" style="shape=parallelogram;perimeter=parallelogramPerimeter;whiteSpace=wrap;html=1;fixedSize=1;" parent="M4mxyy9uxDJhC04Fh0ho-5" vertex="1">
          <mxGeometry x="338.83" y="792" width="120" height="60" as="geometry" />
        </mxCell>
        <mxCell id="M4mxyy9uxDJhC04Fh0ho-79" value="&amp;lt;ButtonsAddTo&lt;div&gt;CartCancel/&amp;gt;&lt;/div&gt;" style="shape=parallelogram;perimeter=parallelogramPerimeter;whiteSpace=wrap;html=1;fixedSize=1;" parent="M4mxyy9uxDJhC04Fh0ho-5" vertex="1">
          <mxGeometry x="338" y="890" width="120" height="60" as="geometry" />
        </mxCell>
        <mxCell id="QsgScr5qlv9Y6ZBttTa0-9" value="&lt;font color=&quot;#a680b8&quot; style=&quot;font-size: 12px;&quot;&gt;&lt;b&gt;Context / Redux&lt;/b&gt;&lt;/font&gt;" style="shape=umlFrame;whiteSpace=wrap;html=1;pointerEvents=0;strokeColor=#A680B8;dashed=1;dashPattern=12 12;" vertex="1" parent="M4mxyy9uxDJhC04Fh0ho-5">
          <mxGeometry x="40" y="-720" width="830" height="1746" as="geometry" />
        </mxCell>
        <mxCell id="M4mxyy9uxDJhC04Fh0ho-13" value="&lt;span style=&quot;color: rgb(0, 0, 0); font-family: Helvetica; font-size: 12px; font-style: normal; font-variant-ligatures: normal; font-variant-caps: normal; font-weight: 400; letter-spacing: normal; orphans: 2; text-align: center; text-indent: 0px; text-transform: none; widows: 2; word-spacing: 0px; -webkit-text-stroke-width: 0px; white-space: normal; background-color: rgb(251, 251, 251); text-decoration-thickness: initial; text-decoration-style: initial; text-decoration-color: initial; display: inline !important; float: none;&quot;&gt;useEffect([filterResults])&lt;/span&gt;" style="shape=process;whiteSpace=wrap;html=1;backgroundOutline=1;" parent="M4mxyy9uxDJhC04Fh0ho-5" vertex="1">
          <mxGeometry x="85.16" y="-577" width="170" height="60" as="geometry" />
        </mxCell>
        <mxCell id="M4mxyy9uxDJhC04Fh0ho-15" value="&lt;br&gt;&lt;span style=&quot;forced-color-adjust: none; color: rgb(0, 0, 0); font-family: Helvetica; font-size: 12px; font-style: normal; font-variant-ligatures: normal; font-variant-caps: normal; font-weight: 400; letter-spacing: normal; orphans: 2; text-align: center; text-indent: 0px; text-transform: none; widows: 2; word-spacing: 0px; -webkit-text-stroke-width: 0px; white-space: normal; background-color: rgb(251, 251, 251); text-decoration-thickness: initial; text-decoration-style: initial; text-decoration-color: initial; float: none; display: inline !important;&quot;&gt;useAddUrl([images])&lt;/span&gt;&lt;div style=&quot;forced-color-adjust: none;&quot;&gt;&lt;br&gt;&lt;/div&gt;" style="shape=process;whiteSpace=wrap;html=1;backgroundOutline=1;" parent="M4mxyy9uxDJhC04Fh0ho-5" vertex="1">
          <mxGeometry x="315.16" y="-577" width="170" height="60" as="geometry" />
        </mxCell>
        <mxCell id="M4mxyy9uxDJhC04Fh0ho-9" value="" style="endArrow=classic;html=1;rounded=0;exitX=1;exitY=0.5;exitDx=0;exitDy=0;entryX=0;entryY=0.5;entryDx=0;entryDy=0;" parent="M4mxyy9uxDJhC04Fh0ho-5" target="M4mxyy9uxDJhC04Fh0ho-15" edge="1" source="M4mxyy9uxDJhC04Fh0ho-13">
          <mxGeometry width="50" height="50" relative="1" as="geometry">
            <mxPoint x="254" y="-623" as="sourcePoint" />
            <mxPoint x="364" y="-623" as="targetPoint" />
          </mxGeometry>
        </mxCell>
        <mxCell id="M4mxyy9uxDJhC04Fh0ho-60" value="Context/Redux:" style="text;html=1;align=center;verticalAlign=middle;whiteSpace=wrap;rounded=0;fontStyle=1;fontColor=#A680B8;" parent="M4mxyy9uxDJhC04Fh0ho-5" vertex="1">
          <mxGeometry x="720" y="-390" width="60" height="30" as="geometry" />
        </mxCell>
        <mxCell id="M4mxyy9uxDJhC04Fh0ho-57" value="{ cartItems&lt;div&gt;isModal&lt;br&gt;&lt;div&gt;}&lt;/div&gt;&lt;/div&gt;" style="text;html=1;align=left;verticalAlign=middle;whiteSpace=wrap;rounded=0;fontColor=#A680B8;" parent="M4mxyy9uxDJhC04Fh0ho-5" vertex="1">
          <mxGeometry x="710" y="-355" width="60" height="30" as="geometry" />
        </mxCell>
        <mxCell id="M4mxyy9uxDJhC04Fh0ho-85" style="edgeStyle=orthogonalEdgeStyle;rounded=0;orthogonalLoop=1;jettySize=auto;html=1;exitX=0.5;exitY=1;exitDx=0;exitDy=0;entryX=0;entryY=0.5;entryDx=0;entryDy=0;" parent="M4mxyy9uxDJhC04Fh0ho-2" source="M4mxyy9uxDJhC04Fh0ho-79" target="M4mxyy9uxDJhC04Fh0ho-10" edge="1">
          <mxGeometry relative="1" as="geometry">
            <Array as="points">
              <mxPoint x="398" y="1670" />
              <mxPoint x="135" y="1670" />
              <mxPoint x="135" y="410" />
            </Array>
          </mxGeometry>
        </mxCell>
        <mxCell id="QsgScr5qlv9Y6ZBttTa0-13" style="edgeStyle=orthogonalEdgeStyle;rounded=0;orthogonalLoop=1;jettySize=auto;html=1;entryX=0.5;entryY=0;entryDx=0;entryDy=0;" edge="1" parent="1" source="QsgScr5qlv9Y6ZBttTa0-12" target="M4mxyy9uxDJhC04Fh0ho-13">
          <mxGeometry relative="1" as="geometry" />
        </mxCell>
        <mxCell id="QsgScr5qlv9Y6ZBttTa0-12" value="&lt;span style=&quot;color: rgb(0, 0, 0); font-family: Helvetica; font-size: 12px; font-style: normal; font-variant-ligatures: normal; font-variant-caps: normal; font-weight: 400; letter-spacing: normal; orphans: 2; text-align: center; text-indent: 0px; text-transform: none; widows: 2; word-spacing: 0px; -webkit-text-stroke-width: 0px; white-space: normal; background-color: rgb(251, 251, 251); text-decoration-thickness: initial; text-decoration-style: initial; text-decoration-color: initial; display: inline !important; float: none;&quot;&gt;useSetToken([])&lt;/span&gt;" style="shape=process;whiteSpace=wrap;html=1;backgroundOutline=1;" vertex="1" parent="1">
          <mxGeometry x="115.16" y="133" width="170" height="60" as="geometry" />
        </mxCell>
        <mxCell id="M4mxyy9uxDJhC04Fh0ho-63" value="Local State:" style="text;html=1;align=center;verticalAlign=middle;whiteSpace=wrap;rounded=0;fontStyle=1;fontColor=#A680B8;" parent="1" vertex="1">
          <mxGeometry x="730" y="130" width="80" height="30" as="geometry" />
        </mxCell>
        <mxCell id="M4mxyy9uxDJhC04Fh0ho-64" value="[ isLoading&lt;div&gt;images&lt;/div&gt;&lt;div&gt;filterResult&lt;/div&gt;&lt;div&gt;categoryTitle ]&lt;/div&gt;" style="text;html=1;align=left;verticalAlign=middle;whiteSpace=wrap;rounded=0;fontColor=#A680B8;" parent="1" vertex="1">
          <mxGeometry x="730" y="180" width="100" height="30" as="geometry" />
        </mxCell>
      </root>
    </mxGraphModel>
  </diagram>
</mxfile>
